<svg width="30" height="31" viewBox="0 0 30 31" fill="none" xmlns="http://www.w3.org/2000/svg">
<g clip-path="url(#clip0_3_33)">
<path d="M15 30.0186C23.2843 30.0186 30 23.3028 30 15.0186C30 6.7343 23.2843 0.0185547 15 0.0185547C6.71575 0.0185547 0 6.7343 0 15.0186C0 23.3028 6.71575 30.0186 15 30.0186Z" fill="url(#paint0_linear_3_33)"/>
<path d="M5.58639 15.7525C7.33988 14.7867 9.29725 13.9805 11.1261 13.1703C14.2725 11.8432 17.4314 10.539 20.6221 9.3249C21.2429 9.11803 22.3584 8.91572 22.4678 9.83572C22.4079 11.138 22.1615 12.4326 21.9925 13.7272C21.5636 16.5742 21.0678 19.4115 20.5844 22.2491C20.4178 23.1943 19.2338 23.6836 18.4761 23.0787C16.6554 21.8488 14.8206 20.631 13.0231 19.3726C12.4343 18.7743 12.9803 17.9151 13.5062 17.4878C15.0058 16.01 16.5962 14.7543 18.0174 13.2001C18.4008 12.2743 17.2681 13.0545 16.8944 13.2936C14.8414 14.7083 12.8387 16.2095 10.6742 17.4528C9.56856 18.0615 8.27994 17.5413 7.17481 17.2017C6.18393 16.7915 4.73201 16.3781 5.58639 15.7525Z" fill="white"/>
</g>
<defs>
<linearGradient id="paint0_linear_3_33" x1="11.2517" y1="1.26955" x2="3.75175" y2="18.7686" gradientUnits="userSpaceOnUse">
<stop stop-color="#37AEE2"/>
<stop offset="1" stop-color="#1E96C8"/>
</linearGradient>
<clipPath id="clip0_3_33">
<rect width="30" height="30" fill="white" transform="translate(0 0.0185547)"/>
</clipPath>
</defs>
</svg>
