<svg width="30" height="31" viewBox="0 0 30 31" fill="none" xmlns="http://www.w3.org/2000/svg">
<path d="M24.75 0.0185547H5.25C2.3505 0.0185547 0 2.36906 0 5.26855V24.7686C0 27.668 2.3505 30.0186 5.25 30.0186H24.75C27.6495 30.0186 30 27.668 30 24.7686V5.26855C30 2.36906 27.6495 0.0185547 24.75 0.0185547Z" fill="#4489C8"/>
<path d="M4.50937 9.28563H8.10937C8.18463 9.28551 8.25815 9.30832 8.32012 9.35103C8.38209 9.39374 8.42957 9.45431 8.45625 9.52469C8.85468 10.5513 10.5094 14.5684 12.0234 14.8966C13.1484 14.8966 12.75 9.55282 11.3203 9.55282C10.9453 9.55282 11.9859 8.88719 12.0562 8.85907C13.3849 8.49489 14.787 8.49489 16.1156 8.85907C16.8328 9.15907 16.9547 9.99813 16.9734 10.7106C16.9922 11.4231 16.1766 14.4606 17.25 14.7888C18.6562 15.22 20.4656 10.8091 20.8875 9.72625C20.9149 9.65675 20.9627 9.59718 21.0246 9.55535C21.0865 9.51352 21.1597 9.49139 21.2344 9.49188H25.2422C25.3041 9.49168 25.3651 9.50683 25.4198 9.53597C25.4744 9.56511 25.521 9.60733 25.5554 9.65886C25.5897 9.7104 25.6108 9.76964 25.6167 9.83129C25.6225 9.89294 25.6131 9.9551 25.5891 10.0122C24.7635 11.8955 23.7737 13.7025 22.6312 15.4122C22.5341 15.5533 22.4885 15.7235 22.5022 15.8943C22.5159 16.065 22.5879 16.2258 22.7062 16.3497C23.9062 17.6341 27.1875 21.2716 25.3125 21.2716H21.2672C21.1626 21.2718 21.0592 21.2498 20.9638 21.207C20.8685 21.1641 20.7833 21.1015 20.7141 21.0231C20.0859 20.3294 18.2578 18.3981 17.4328 18.5528C16.7484 18.6794 16.6828 19.8419 16.7156 20.6013C16.726 20.7972 16.6591 20.9893 16.5294 21.1366C16.3997 21.2838 16.2175 21.3743 16.0219 21.3888C15.3047 21.4309 14.325 21.4497 14.2359 21.445C11.3766 21.2622 9.68437 19.3544 8.06718 17.2263C6.37319 14.97 5.05175 12.4569 4.15312 9.7825C4.13475 9.72591 4.12994 9.6658 4.13907 9.60701C4.14821 9.54822 4.17102 9.4924 4.20569 9.44405C4.24036 9.39569 4.2859 9.35616 4.33865 9.32865C4.3914 9.30113 4.44988 9.28639 4.50937 9.28563Z" fill="white"/>
</svg>
