<svg width="31" height="30" viewBox="0 0 31 30" fill="none" xmlns="http://www.w3.org/2000/svg">
<path d="M15.0233 0H15.0154C6.74486 0 0.0193481 6.72735 0.0193481 15C0.0193481 18.2813 1.07669 21.3228 2.87484 23.792L1.00571 29.364L6.77151 27.5211C9.14312 29.0925 11.9725 30 15.0233 30C23.2938 30 30.0193 23.2705 30.0193 15C30.0193 6.72936 23.2938 0 15.0233 0Z" fill="#5ACF5F"/>
<path d="M23.7511 21.1816C23.3891 22.2038 21.9529 23.051 20.8075 23.2989C20.0234 23.4655 18.9999 23.5989 15.5539 22.17C11.1455 20.3439 8.30676 15.8644 8.08578 15.5738C7.87361 15.2831 6.30442 13.2022 6.30442 11.0493C6.30442 8.89689 7.3974 7.84855 7.83822 7.39896C8.19976 7.02924 8.79799 6.86084 9.37177 6.86084C9.55747 6.86084 9.72419 6.86999 9.8745 6.87758C10.3151 6.89651 10.5361 6.92253 10.827 7.61821C11.1888 8.49025 12.0698 10.6426 12.1751 10.864C12.2821 11.0854 12.3886 11.3851 12.2388 11.6756C12.0979 11.9758 11.9744 12.1089 11.7531 12.3637C11.5318 12.6191 11.3215 12.814 11.1005 13.0875C10.8981 13.3256 10.6693 13.5807 10.9244 14.0214C11.1793 14.4527 12.0604 15.8905 13.3578 17.0456C15.0326 18.5362 16.3897 19.0125 16.8756 19.2151C17.2374 19.3653 17.6686 19.3293 17.9327 19.0481C18.2684 18.6861 18.6832 18.0863 19.1048 17.4958C19.4048 17.072 19.7835 17.0194 20.181 17.1693C20.586 17.31 22.7291 18.3695 23.1697 18.5888C23.6102 18.8101 23.9012 18.915 24.008 19.1007C24.113 19.286 24.113 20.1581 23.7511 21.1816Z" fill="#FCFCFC"/>
</svg>
